<svg width="27" height="26" viewBox="0 0 27 26" fill="none" xmlns="http://www.w3.org/2000/svg">
<path d="M1.07616 17.3083C0.836956 17.3083 0.642822 17.1229 0.642822 16.8945V2.24138C0.642822 1.55697 1.22609 1 1.94282 1H25.3428C26.0596 1 26.6428 1.55697 26.6428 2.24138V6.30629C26.6428 6.5347 26.4487 6.72008 26.2095 6.72008C25.9703 6.72008 25.7762 6.5347 25.7762 6.30629V2.24138C25.7762 2.01379 25.5812 1.82759 25.3428 1.82759H1.94282C1.70449 1.82759 1.50949 2.01379 1.50949 2.24138V16.8945C1.50949 17.1229 1.31536 17.3083 1.07616 17.3083Z" fill="#4AC8AE" stroke="#4AC8AE" stroke-width="0.6"/>
<path d="M13.6429 25H8.8762C8.637 25 8.44287 24.8146 8.44287 24.5862C8.44287 24.3578 8.637 24.1724 8.8762 24.1724H9.74287C10.4596 24.1724 11.0429 23.6154 11.0429 22.931V20.862C11.0429 20.6336 11.237 20.4482 11.4762 20.4482C11.7154 20.4482 11.9095 20.6336 11.9095 20.862V22.931C11.9095 23.3969 11.7475 23.8264 11.4753 24.1724H13.6429C13.8821 24.1724 14.0762 24.3578 14.0762 24.5862C14.0762 24.8146 13.8821 25 13.6429 25Z" fill="#4AC8AE" stroke="#4AC8AE" stroke-width="0.6"/>
<path d="M14.6539 20.8621H1.94282C1.22609 20.8621 0.642822 20.3051 0.642822 19.6207V17.1379C0.642822 16.9095 0.836956 16.7241 1.07616 16.7241H14.6539C14.8931 16.7241 15.0873 16.9095 15.0873 17.1379C15.0873 17.3663 14.8931 17.5517 14.6539 17.5517H1.50949V19.6207C1.50949 19.8483 1.70449 20.0345 1.94282 20.0345H14.6539C14.8931 20.0345 15.0873 20.2198 15.0873 20.4483C15.0873 20.6767 14.8931 20.8621 14.6539 20.8621Z" fill="#4AC8AE" stroke="#4AC8AE" stroke-width="0.6"/>
<path d="M18.4094 6.79316H22.7427C22.9819 6.79316 23.1761 6.60778 23.1761 6.37937C23.1761 6.15096 22.9819 5.96558 22.7427 5.96558H18.4094C18.1702 5.96558 17.9761 6.15096 17.9761 6.37937C17.9761 6.60778 18.1702 6.79316 18.4094 6.79316Z" fill="#4AC8AE" stroke="#4AC8AE" stroke-width="0.6"/>
<path d="M20.1428 23.3448H21.0095C21.2487 23.3448 21.4428 23.1594 21.4428 22.931C21.4428 22.7026 21.2487 22.5172 21.0095 22.5172H20.1428C19.9036 22.5172 19.7095 22.7026 19.7095 22.931C19.7095 23.1594 19.9036 23.3448 20.1428 23.3448Z" fill="#4AC8AE" stroke="#4AC8AE" stroke-width="0.6"/>
<path fill-rule="evenodd" clip-rule="evenodd" d="M16.6762 25H24.4762C25.6713 25 26.6429 24.0722 26.6429 22.931V6.37927C26.6429 5.23803 25.6713 4.3103 24.4762 4.3103H16.6762C15.4811 4.3103 14.5095 5.23803 14.5095 6.37927V22.931C14.5095 24.0722 15.4811 25 16.6762 25ZM15.3762 6.37927C15.3762 5.69485 15.9595 5.13789 16.6762 5.13789H24.4762C25.1929 5.13789 25.7762 5.69485 25.7762 6.37927V22.931C25.7762 23.6154 25.1929 24.1724 24.4762 24.1724H16.6762C15.9595 24.1724 15.3762 23.6154 15.3762 22.931V6.37927Z" fill="#4AC8AE"/>
<path d="M24.4762 24.7H16.6762V25.3H24.4762V24.7ZM26.3429 22.931C26.3429 23.8937 25.5188 24.7 24.4762 24.7V25.3C25.8238 25.3 26.9429 24.2508 26.9429 22.931H26.3429ZM26.3429 6.37927V22.931H26.9429V6.37927H26.3429ZM24.4762 4.6103C25.5188 4.6103 26.3429 5.41661 26.3429 6.37927H26.9429C26.9429 5.05945 25.8238 4.0103 24.4762 4.0103V4.6103ZM16.6762 4.6103H24.4762V4.0103H16.6762V4.6103ZM14.8095 6.37927C14.8095 5.41661 15.6335 4.6103 16.6762 4.6103V4.0103C15.3286 4.0103 14.2095 5.05945 14.2095 6.37927H14.8095ZM14.8095 22.931V6.37927H14.2095V22.931H14.8095ZM16.6762 24.7C15.6335 24.7 14.8095 23.8937 14.8095 22.931H14.2095C14.2095 24.2508 15.3286 25.3 16.6762 25.3V24.7ZM16.6762 4.83789C15.807 4.83789 15.0762 5.51627 15.0762 6.37927H15.6762C15.6762 5.87343 16.1119 5.43789 16.6762 5.43789V4.83789ZM24.4762 4.83789H16.6762V5.43789H24.4762V4.83789ZM26.0762 6.37927C26.0762 5.51627 25.3454 4.83789 24.4762 4.83789V5.43789C25.0404 5.43789 25.4762 5.87343 25.4762 6.37927H26.0762ZM26.0762 22.931V6.37927H25.4762V22.931H26.0762ZM24.4762 24.4724C25.3454 24.4724 26.0762 23.794 26.0762 22.931H25.4762C25.4762 23.4368 25.0404 23.8724 24.4762 23.8724V24.4724ZM16.6762 24.4724H24.4762V23.8724H16.6762V24.4724ZM15.0762 22.931C15.0762 23.794 15.807 24.4724 16.6762 24.4724V23.8724C16.1119 23.8724 15.6762 23.4368 15.6762 22.931H15.0762ZM15.0762 6.37927V22.931H15.6762V6.37927H15.0762Z" fill="#4AC8AE"/>
</svg>
